# Blender 3.3.1
# www.blender.org
mtllib ThreeWindows.mtl
o Okno
v 0.368629 3.817436 1.699879
v 0.368629 0.000898 1.699879
v 0.368629 3.817436 3.388903
v 0.368629 0.000898 3.388903
v 0.368241 3.817436 1.699879
v 0.368241 0.000898 1.699879
v 0.368241 3.817436 3.388903
v 0.368241 0.000898 3.388903
v 0.368629 3.817436 -0.791431
v 0.368629 0.000898 -0.791431
v 0.368629 3.817436 0.897593
v 0.368629 0.000898 0.897593
v 0.368241 3.817436 -0.791431
v 0.368241 0.000898 -0.791431
v 0.368241 3.817436 0.897593
v 0.368241 0.000898 0.897593
v 0.368629 3.817436 -3.282741
v 0.368629 0.000898 -3.282741
v 0.368629 3.817436 -1.593717
v 0.368629 0.000898 -1.593717
v 0.368241 3.817436 -3.282741
v 0.368241 0.000898 -3.282741
v 0.368241 3.817436 -1.593717
v 0.368241 0.000898 -1.593717
vn -0.0000 1.0000 -0.0000
vn -0.0000 -0.0000 1.0000
vn -1.0000 -0.0000 -0.0000
vn -0.0000 -1.0000 -0.0000
vn 1.0000 -0.0000 -0.0000
vn -0.0000 -0.0000 -1.0000
vt 0.625000 0.500000
vt 0.375000 0.500000
vt 0.625000 0.750000
vt 0.375000 0.750000
vt 0.875000 0.500000
vt 0.625000 0.250000
vt 0.125000 0.500000
vt 0.375000 0.250000
vt 0.875000 0.750000
vt 0.625000 1.000000
vt 0.625000 0.000000
vt 0.375000 1.000000
vt 0.375000 0.000000
vt 0.125000 0.750000
vt 0.625000 0.500000
vt 0.375000 0.500000
vt 0.625000 0.750000
vt 0.375000 0.750000
vt 0.875000 0.500000
vt 0.625000 0.250000
vt 0.125000 0.500000
vt 0.375000 0.250000
vt 0.875000 0.750000
vt 0.625000 1.000000
vt 0.625000 0.000000
vt 0.375000 1.000000
vt 0.375000 0.000000
vt 0.125000 0.750000
vt 0.625000 0.500000
vt 0.375000 0.500000
vt 0.625000 0.750000
vt 0.375000 0.750000
vt 0.875000 0.500000
vt 0.625000 0.250000
vt 0.125000 0.500000
vt 0.375000 0.250000
vt 0.875000 0.750000
vt 0.625000 1.000000
vt 0.625000 0.000000
vt 0.375000 1.000000
vt 0.375000 0.000000
vt 0.125000 0.750000
s 0
usemtl Material.001
f 1/1/1 5/5/1 7/9/1 3/3/1
f 4/4/2 3/3/2 7/10/2 8/12/2
f 8/13/3 7/11/3 5/6/3 6/8/3
f 6/7/4 2/2/4 4/4/4 8/14/4
f 2/2/5 1/1/5 3/3/5 4/4/5
f 6/8/6 5/6/6 1/1/6 2/2/6
f 9/15/1 13/19/1 15/23/1 11/17/1
f 12/18/2 11/17/2 15/24/2 16/26/2
f 16/27/3 15/25/3 13/20/3 14/22/3
f 14/21/4 10/16/4 12/18/4 16/28/4
f 10/16/5 9/15/5 11/17/5 12/18/5
f 14/22/6 13/20/6 9/15/6 10/16/6
f 17/29/1 21/33/1 23/37/1 19/31/1
f 20/32/2 19/31/2 23/38/2 24/40/2
f 24/41/3 23/39/3 21/34/3 22/36/3
f 22/35/4 18/30/4 20/32/4 24/42/4
f 18/30/5 17/29/5 19/31/5 20/32/5
f 22/36/6 21/34/6 17/29/6 18/30/6
