# Blender 3.3.1
# www.blender.org
mtllib Ściana 4.mtl
o Ściana_4
v 3.887929 0.071153 3.487522
v 3.867206 4.352345 3.408473
v -3.978328 4.314196 3.399110
v -3.957603 0.033003 3.478160
v 3.888154 0.067951 3.314006
v 3.867426 4.349143 3.234957
v -3.978106 4.310993 3.225594
v -3.957381 0.029801 3.304644
vn -0.0013 0.0185 0.9998
vn 0.0013 -0.0185 -0.9998
vn 1.0000 0.0049 0.0012
vn -0.0048 0.9998 -0.0185
vn -1.0000 -0.0049 -0.0012
vn 0.0048 -0.9998 0.0185
s 0
usemtl Material.009
f 1//1 2//1 3//1 4//1
f 5//2 8//2 7//2 6//2
f 1//3 5//3 6//3 2//3
f 2//4 6//4 7//4 3//4
f 3//5 7//5 8//5 4//5
f 5//6 1//6 4//6 8//6
