# Blender 3.3.1
# www.blender.org
mtllib Ściana 2.mtl
o Ściana_2
v -3.977368 0.071390 -3.588060
v -3.956152 4.352942 -3.531986
v 3.888971 4.313022 -3.452119
v 3.867754 0.031470 -3.508193
v -3.979148 0.069128 -3.414538
v -3.957928 4.350678 -3.358465
v 3.887194 4.310758 -3.278598
v 3.865977 0.029207 -3.334671
vn 0.0102 0.0130 -0.9999
vn -0.0102 -0.0130 0.9999
vn -0.9999 0.0051 -0.0102
vn 0.0050 0.9999 0.0131
vn 0.9999 -0.0051 0.0102
vn -0.0050 -0.9999 -0.0131
s 0
usemtl Material.002
f 1//1 2//1 3//1 4//1
f 5//2 8//2 7//2 6//2
f 1//3 5//3 6//3 2//3
f 2//4 6//4 7//4 3//4
f 3//5 7//5 8//5 4//5
f 5//6 1//6 4//6 8//6
